<svg width="512" height="512" viewBox="0 0 180 180" fill="none" xmlns="http://www.w3.org/2000/svg">
  <title>WebMakingStudios Mark</title>
  <defs>
    <linearGradient id="bg" x1="24" y1="22" x2="154" y2="158" gradientUnits="userSpaceOnUse">
      <stop stop-color="#D26A42"/>
      <stop offset="0.52" stop-color="#B55330"/>
      <stop offset="1" stop-color="#E0A05F"/>
    </linearGradient>
    <linearGradient id="stroke" x1="42" y1="72" x2="140" y2="124" gradientUnits="userSpaceOnUse">
      <stop stop-color="#FFF8F0"/>
      <stop offset="1" stop-color="#F6D8B0"/>
    </linearGradient>
    <linearGradient id="trace" x1="40" y1="118" x2="142" y2="62" gradientUnits="userSpaceOnUse">
      <stop stop-color="#4E1F0F"/>
      <stop offset="1" stop-color="#FFE7C8"/>
    </linearGradient>
    <filter id="shadow" x="17" y="15" width="146" height="150" filterUnits="userSpaceOnUse" color-interpolation-filters="sRGB">
      <feOffset dy="10"/>
      <feGaussianBlur stdDeviation="9"/>
      <feColorMatrix
        type="matrix"
        values="0 0 0 0 0.27451 0 0 0 0 0.105882 0 0 0 0 0.0470588 0 0 0 0.22 0"
      />
      <feBlend in2="SourceGraphic" result="shape"/>
    </filter>
  </defs>

  <g filter="url(#shadow)">
    <rect x="22" y="20" width="136" height="136" rx="38" fill="url(#bg)"/>
    <rect
      x="31"
      y="29"
      width="118"
      height="118"
      rx="30"
      fill="url(#bg)"
      fill-opacity="0.18"
      stroke="#FFF8F0"
      stroke-opacity="0.28"
    />
    <circle cx="130" cy="50" r="26" fill="#FFF8F0" fill-opacity="0.08"/>
    <rect x="36" y="42" width="108" height="16" rx="8" fill="#FFF8F0" fill-opacity="0.16"/>
    <circle cx="48" cy="50" r="3.5" fill="#FFF8F0" fill-opacity="0.9"/>
    <circle cx="60" cy="50" r="3.5" fill="#F5D4A9"/>
    <circle cx="72" cy="50" r="3.5" fill="#F2B07E"/>

    <path
      d="M40 118L57 72L79 118L98 86L117 126L142 62"
      stroke="url(#stroke)"
      stroke-width="15"
      stroke-linecap="round"
      stroke-linejoin="round"
    />
    <path
      d="M40 118L57 72L79 118L98 86L117 126L142 62"
      stroke="url(#trace)"
      stroke-opacity="0.42"
      stroke-width="4"
      stroke-linecap="round"
      stroke-linejoin="round"
    />

    <circle cx="142" cy="62" r="7" fill="#FFF6EC"/>
    <circle cx="142" cy="62" r="3" fill="#D46F45"/>

    <rect x="40" y="132" width="48" height="8" rx="4" fill="#FFF8F0" fill-opacity="0.26"/>
    <rect x="94" y="132" width="30" height="8" rx="4" fill="#FFF8F0" fill-opacity="0.14"/>
  </g>
</svg>
